<?xml version="1.0" encoding="UTF-8" standalone="no"?>
<!DOCTYPE svg PUBLIC "-//W3C//DTD SVG 1.1//EN" "http://www.w3.org/Graphics/SVG/1.1/DTD/svg11.dtd">
<svg version="1.1" xmlns="http://www.w3.org/2000/svg" xmlns:xlink="http://www.w3.org/1999/xlink" preserveAspectRatio="xMidYMid meet" viewBox="0 763.5616307399124 595 20.83250121992205" width="790" height="27.66"><defs><path d="M0 784.35C88.19 768.67 189.88 765.75 305.08 775.6C420.28 785.45 516.92 784.54 595 772.87L595 772.87C477.14 777.75 376.36 775.93 292.65 767.41C208.95 758.88 111.4 764.53 0 784.35L0 784.35Z" id="a37sp4dJwR"></path><path d="M0 784.39C81.56 775.96 183.25 774.94 305.08 781.35C426.91 787.76 523.55 783.75 595 769.31L595 775.16C526.78 783.35 426.37 783.35 293.77 775.16C161.17 766.96 63.24 770.04 0 784.39L0 784.39Z" id="a263QHn39z"></path></defs><g><g><g><use xlink:href="#a37sp4dJwR" opacity="1" fill="#57c7c1" fill-opacity="1"></use><g><use xlink:href="#a37sp4dJwR" opacity="1" fill-opacity="0" stroke="#57c7c1" stroke-width="1" stroke-opacity="1"></use></g></g><g><use xlink:href="#a263QHn39z" opacity="1" fill="#2d366f" fill-opacity="1"></use><g><use xlink:href="#a263QHn39z" opacity="1" fill-opacity="0" stroke="#2d366f" stroke-width="1" stroke-opacity="1"></use></g></g></g></g></svg>