<?xml version="1.0" encoding="UTF-8" standalone="no"?>
<!DOCTYPE svg PUBLIC "-//W3C//DTD SVG 1.1//EN" "http://www.w3.org/Graphics/SVG/1.1/DTD/svg11.dtd">
<svg version="1.1" xmlns="http://www.w3.org/2000/svg" xmlns:xlink="http://www.w3.org/1999/xlink" preserveAspectRatio="xMidYMid meet" viewBox="87.74999999999989 37.190848718634555 380 278.94248461469874" width="376" height="274.94"><defs><path d="M98.45 303.9C89.65 295.1 88.75 290.6 88.75 255.8C88.75 253.91 88.75 244.48 88.75 227.5L101.75 227.5L114.75 227.5C114.75 243.7 114.75 252.7 114.75 254.5C114.75 283.9 115.15 286.3 120.25 290.3C123.55 293 131.35 293.3 135.75 291C141.45 288 141.75 286.4 141.75 255.5C141.75 253.63 141.75 244.3 141.75 227.5L155.25 227.5L168.75 227.5C168.75 243.88 168.75 252.98 168.75 254.8C168.75 284.4 168.05 289.9 163.45 297.8C160.05 303.6 153.75 309 147.85 311C142.35 313 124.75 313.8 116.45 312.5C108.65 311.2 103.05 308.6 98.45 303.9Z" id="auEQJpMdA"></path><path d="M184.75 227.5L197.05 227.5L209.45 227.5L224.35 249.6L239.25 271.6L239.55 249.6L239.75 227.5L252.25 227.5L264.75 227.5L264.75 269.5L264.75 311.5L252.05 311.5L239.25 311.4L224.75 289.9L210.25 268.4L209.95 289.9L209.75 311.5L197.25 311.5L184.75 311.5L184.75 269.5L184.75 227.5Z" id="b2UaRAxqj"></path><path d="M347.17 270.49L347.78 272.16L348.39 273.82L348.99 275.45L349.59 277.07L350.17 278.67L350.75 280.25L351.32 281.8L351.88 283.33L352.43 284.83L352.97 286.3L353.49 287.74L354.01 289.16L354.51 290.54L355.01 291.89L355.49 293.2L355.95 294.48L356.4 295.72L356.84 296.93L357.26 298.09L357.67 299.21L358.06 300.29L358.43 301.32L358.79 302.31L359.13 303.25L359.45 304.14L359.75 304.99L360.04 305.78L360.3 306.52L360.54 307.2L360.76 307.84L360.97 308.41L361.15 308.93L361.3 309.38L361.44 309.78L361.55 310.11L361.64 310.38L361.7 310.59L361.74 310.73L361.75 310.8L361.74 310.83L361.7 310.86L361.65 310.89L361.57 310.92L361.47 310.94L361.35 310.97L361.21 311L361.04 311.03L360.86 311.05L360.66 311.08L360.44 311.1L360.21 311.13L359.95 311.15L359.68 311.17L359.39 311.2L359.08 311.22L358.76 311.24L358.42 311.26L358.07 311.28L357.7 311.3L357.32 311.32L356.92 311.34L356.51 311.35L356.09 311.37L355.66 311.38L355.21 311.4L354.75 311.41L354.28 311.42L353.8 311.44L353.31 311.45L352.81 311.46L352.3 311.47L351.79 311.47L351.26 311.48L350.72 311.49L350.18 311.49L349.63 311.5L349.08 311.5L348.52 311.5L347.95 311.5L334.25 311.5L332.35 305L330.45 298.4L316.35 298.7L302.35 299L300.45 305.3L298.55 311.5L285.05 311.5L284.23 311.5L283.45 311.5L282.7 311.5L281.98 311.49L281.29 311.49L280.63 311.48L280 311.48L279.4 311.47L278.82 311.46L278.28 311.45L277.76 311.44L277.27 311.42L276.8 311.41L276.36 311.39L275.95 311.37L275.56 311.35L275.19 311.33L274.85 311.31L274.52 311.28L274.22 311.25L273.95 311.22L273.69 311.19L273.45 311.15L273.23 311.11L273.04 311.07L272.86 311.03L272.69 310.98L272.55 310.93L272.42 310.88L272.31 310.83L272.21 310.77L272.13 310.71L272.06 310.64L272.01 310.58L271.97 310.5L271.94 310.43L271.93 310.35L271.93 310.27L271.93 310.19L271.95 310.1L271.98 310.01L272.03 309.85L272.11 309.62L272.21 309.33L272.33 308.98L272.47 308.57L272.64 308.1L272.83 307.57L273.04 306.98L273.27 306.34L273.52 305.64L273.79 304.89L274.08 304.09L274.39 303.24L274.72 302.34L275.06 301.39L275.42 300.4L275.8 299.36L276.19 298.28L276.6 297.16L277.02 296L277.46 294.8L277.91 293.56L278.38 292.29L278.86 290.98L279.35 289.64L279.85 288.26L280.37 286.86L280.89 285.42L281.43 283.96L281.97 282.47L282.53 280.95L283.09 279.42L283.67 277.86L284.25 276.27L284.83 274.67L285.43 273.05L286.03 271.42L286.64 269.77L287.25 268.1L287.43 267.61L287.67 266.96L287.97 266.15L289.23 262.74L294.27 249.1L296.25 243.74L297.33 240.82L302.25 227.5L331.25 227.5L346.55 268.8L347.17 270.49ZM316.13 254.88L315.5 256.42L314.74 258.47L313.89 260.89L312.99 263.56L312.09 266.36L311.22 269.16L310.42 271.83L309.73 274.26L309.2 276.31L308.86 277.87L308.75 278.8L308.81 278.89L309 278.98L309.29 279.06L309.69 279.14L310.19 279.21L310.79 279.27L311.46 279.33L312.21 279.38L313.03 279.42L313.91 279.45L314.85 279.48L315.83 279.49L316.85 279.5L318.28 279.49L319.54 279.48L320.63 279.45L321.56 279.4L322.35 279.34L323 279.26L323.52 279.16L323.92 279.04L324.21 278.9L324.4 278.74L324.49 278.55L324.51 278.34L324.45 278.1L324.36 277.83L324.22 277.41L324.03 276.85L323.81 276.15L323.56 275.33L323.27 274.4L322.95 273.38L322.61 272.26L322.25 271.07L321.86 269.82L321.47 268.52L321.06 267.17L320.65 265.8L320.26 264.45L319.86 263.12L319.48 261.83L319.1 260.6L318.74 259.43L318.39 258.33L318.07 257.32L317.77 256.41L317.51 255.61L317.28 254.94L317.09 254.41L316.95 254.02L316.85 253.8L316.59 253.96L316.13 254.88Z" id="a5CzCSYYq"></path><path d="M369.75 227.5L386.75 227.5L403.75 227.5C404.17 229.18 404.4 230.11 404.45 230.3C404.75 231.8 407.65 242.8 410.75 254.7C411.12 256.15 412.99 263.42 416.35 276.5C419.23 264.8 420.83 258.3 421.15 257C423.75 246.3 426.65 235.3 427.45 232.5C427.55 232.17 428.05 230.5 428.95 227.5L445.85 227.5L462.75 227.5L462.75 269.5L462.75 311.5L451.75 311.5L440.75 311.5L440.65 283.3L440.55 255L433.45 283.3L426.25 311.5L416.15 311.5L405.95 311.5L398.45 281.8L390.95 252L390.85 281.8L390.75 311.5L380.25 311.5L369.75 311.5L369.75 269.5L369.75 227.5Z" id="fR6LLUucy"></path><path d="M302.75 206.6C307.05 203.1 313.15 197.3 316.15 193.6C322.55 185.8 333.25 165.7 337.65 153.3C348.55 122.2 346.25 87.3 331.35 57.2C331 56.49 329.23 52.92 326.05 46.5C328.21 46.5 329.41 46.5 329.65 46.5C334.55 46.5 415.95 52.3 416.25 52.7C416.65 53.1 464.75 212.1 464.75 212.8C464.75 213.2 426.55 213.5 379.75 213.5C333.05 213.5 294.75 213.4 294.75 213.2C294.75 213 298.35 210 302.75 206.6Z" id="c7mJZyUrP3"></path><path d="M177.05 155.5C174.75 146.6 174.75 128.3 177.15 119.5C182.95 97.9 199.45 78.9 219.65 70.4C223.25 68.9 227.95 67.3 230.05 67C230.3 66.95 231.57 66.72 233.85 66.3C231.75 69.78 230.58 71.71 230.35 72.1C223.65 83.5 219.95 99.4 221.25 111.8C223.85 138.9 241.85 161.7 267.65 170.9C275.65 173.7 277.25 173.9 289.25 173.9C298.25 173.9 303.75 173.4 307.05 172.3C310.55 171.1 311.75 171 311.75 171.9C311.75 173.5 304.55 184 300.35 188.3C293.05 196.2 277.95 205 266.55 208.1C260.05 209.9 241.95 210.7 235.55 209.5C207.25 204.4 184.35 183.2 177.05 155.5Z" id="c1PUR1Ly6k"></path><path d="M89.25 132.3C112.29 123.96 125.09 119.33 127.65 118.4C148.85 110.8 166.25 104.6 166.35 104.8C166.45 104.9 165.45 108.8 164.15 113.5C160.65 125.2 159.95 140.9 162.25 153C166.25 174.8 177.85 193.7 195.15 207C199.35 210.2 202.75 212.9 202.75 213.1C202.75 213.3 177.05 213.5 145.75 213.5C141.95 213.5 122.95 213.5 88.75 213.5L88.95 172.9L89.25 132.3Z" id="j1qKzAolpq"></path><path d="M250.75 156.4C250.75 156.2 252.65 153.3 254.85 150C261.25 140.6 263.95 131.7 264.55 118C264.95 107.9 263.95 93.7 262.15 82.1C262.11 81.86 261.91 80.66 261.55 78.5C276.55 66.5 284.88 59.83 286.55 58.5C300.35 47.5 312.05 38.4 312.55 38.2C313.85 37.8 319.35 50.6 321.65 59.5C326.45 77.9 326.95 104.1 322.85 120.8C318.75 137.2 310.25 150.1 299.45 156.4C292.05 160.8 279.95 162.7 269.25 161.3C265.35 160.8 250.75 156.9 250.75 156.4Z" id="aKm6rEY2L"></path></defs><g><g><use xlink:href="#auEQJpMdA" opacity="1" fill="#2d366f" fill-opacity="1"></use><g><use xlink:href="#auEQJpMdA" opacity="1" fill-opacity="0" stroke="#2d366f" stroke-width="1" stroke-opacity="1"></use></g></g><g><use xlink:href="#b2UaRAxqj" opacity="1" fill="#2d366f" fill-opacity="1"></use><g><use xlink:href="#b2UaRAxqj" opacity="1" fill-opacity="0" stroke="#2d366f" stroke-width="1" stroke-opacity="1"></use></g></g><g><use xlink:href="#a5CzCSYYq" opacity="1" fill="#2d366f" fill-opacity="1"></use><g><use xlink:href="#a5CzCSYYq" opacity="1" fill-opacity="0" stroke="#2d366f" stroke-width="1" stroke-opacity="1"></use></g></g><g><use xlink:href="#fR6LLUucy" opacity="1" fill="#2d366f" fill-opacity="1"></use><g><use xlink:href="#fR6LLUucy" opacity="1" fill-opacity="0" stroke="#2d366f" stroke-width="1" stroke-opacity="1"></use></g></g><g><use xlink:href="#c7mJZyUrP3" opacity="1" fill="#2d366f" fill-opacity="1"></use><g><use xlink:href="#c7mJZyUrP3" opacity="1" fill-opacity="0" stroke="#2d366f" stroke-width="1" stroke-opacity="1"></use></g></g><g><use xlink:href="#c1PUR1Ly6k" opacity="1" fill="#2d366f" fill-opacity="1"></use><g><use xlink:href="#c1PUR1Ly6k" opacity="1" fill-opacity="0" stroke="#2d366f" stroke-width="1" stroke-opacity="1"></use></g></g><g><use xlink:href="#j1qKzAolpq" opacity="1" fill="#57c7c2" fill-opacity="1"></use><g><use xlink:href="#j1qKzAolpq" opacity="1" fill-opacity="0" stroke="#57c7c2" stroke-width="1" stroke-opacity="0"></use></g></g><g><use xlink:href="#aKm6rEY2L" opacity="1" fill="#57c7c2" fill-opacity="1"></use><g><use xlink:href="#aKm6rEY2L" opacity="1" fill-opacity="0" stroke="#57c7c2" stroke-width="1" stroke-opacity="0"></use></g></g></g></svg>