<?xml version="1.0" encoding="UTF-8" standalone="no"?>
<!DOCTYPE svg PUBLIC "-//W3C//DTD SVG 1.1//EN" "http://www.w3.org/Graphics/SVG/1.1/DTD/svg11.dtd">
<svg version="1.1" xmlns="http://www.w3.org/2000/svg" xmlns:xlink="http://www.w3.org/1999/xlink" preserveAspectRatio="xMidYMid meet" viewBox="9.691517552624191 3.8139678550387544 620.6169648947514 482.84310714031926" width="620.62" height="482.84"><defs><path d="M347.43 290.66L624.59 290.66L545.02 28.46L400.35 18.29C399.42 18.63 398.9 18.81 398.8 18.85C410.46 37.3 419.31 58.85 424.33 82.81C435.91 138.08 424.63 193.88 397.7 235.51C398.26 235.33 398.81 235.15 399.37 234.95C387.29 257.81 369.3 277.06 347.43 290.66" id="b1zhAl0izL"></path><path d="M9.77 290.66C120.5 290.66 182.01 290.66 194.31 290.66C153.09 265.04 125.64 219.35 125.64 167.24C125.64 148.45 129.23 130.49 135.72 114.01C127.32 117.05 85.34 132.23 9.77 159.57L9.77 290.66Z" id="c1dj6R4FAA"></path><path d="M374.3 222.84C354.42 260.49 314.88 286.15 269.34 286.15C203.83 286.15 150.71 233.05 150.71 167.54C150.71 110.41 191.09 62.72 244.86 51.44C232.03 69.76 224.51 92.05 224.51 116.11C224.51 178.46 275.05 229.01 337.41 229.01C350.33 229.01 362.74 226.83 374.3 222.84" id="b2p6DVakLC"></path><path d="M375.94 3.81C326.21 43.55 298.58 65.63 293.05 70.05C299.89 120.21 305.03 163.14 274.88 196.74C411.8 247.55 413.42 65.63 375.94 3.81" id="g33B7cVKx"></path><path d="M97.71 315.46L139.46 315.46C139.46 363.89 139.46 390.8 139.46 396.18C139.46 408.19 136.05 416.63 135.68 418.9C131.98 429.53 125.12 435.7 123.95 437.56C116 445.5 108.9 447.62 107.23 448.74C95.04 453.26 80.88 452.81 77.95 453.26C68.07 453.26 58.5 452.02 56.34 451.88C44.7 450.49 38.8 446.97 36.85 446.43C29 442.27 23.88 435.87 22.44 434.7C15.97 427.12 14.46 420.65 13.57 419.09C10.98 410.47 9.69 402.83 9.69 396.18L9.69 315.46L51.44 315.46C51.44 365.06 51.44 392.61 51.44 398.12C51.44 409.21 56.93 413.75 57.54 415.49C63.72 421.67 72.91 421.06 74.62 421.67C85.43 421.67 89.84 416.19 91.53 415.58C95.65 411.45 97.71 405.63 97.71 398.12L97.71 315.46Z" id="a5LbWphq8S"></path><path d="M167.45 315.46L206.52 315.46L257.5 390.36L257.5 315.46L296.94 315.46L296.94 450.86L257.5 450.86L206.79 376.51L206.79 450.86L167.45 450.86L167.45 315.46Z" id="c5ZmeNEqD"></path><path d="M414.7 450.86L408.05 428.51L360.39 428.51L353.84 450.86L311.07 450.86L361.96 315.46L407.59 315.46L458.49 450.86L414.7 450.86ZM399.28 399.23L384.32 350.55L369.45 399.23L399.28 399.23Z" id="c9fyUHaoS"></path><path d="M471.45 315.46L526.5 315.46L547.74 397.84L568.89 315.46L623.76 315.46L623.76 450.86L589.58 450.86L589.58 347.6L563.07 450.86L532.13 450.86L505.71 347.6L505.71 450.86L471.45 450.86L471.45 315.46Z" id="eaEnHrpmYn"></path><path d="M22.49 464.89L28.53 464.89C28.53 471.89 28.53 475.78 28.53 476.55C28.53 478.29 28.03 479.51 27.98 479.84C27.45 481.37 26.45 482.26 26.28 482.53C25.14 483.68 24.11 483.99 23.87 484.15C22.11 484.8 20.06 484.74 19.64 484.8C18.21 484.8 16.83 484.62 16.52 484.6C14.83 484.4 13.98 483.89 13.7 483.81C12.57 483.21 11.83 482.29 11.62 482.12C10.68 481.03 10.46 480.09 10.34 479.86C9.96 478.62 9.78 477.52 9.78 476.55L9.78 464.89L15.81 464.89C15.81 472.06 15.81 476.04 15.81 476.83C15.81 478.44 16.6 479.09 16.69 479.34C17.58 480.24 18.91 480.15 19.16 480.24C20.72 480.24 21.36 479.45 21.6 479.36C22.2 478.76 22.49 477.92 22.49 476.83L22.49 464.89Z" id="g3n5O8Hf7x"></path><path d="M32.57 464.89L38.22 464.89L45.58 475.71L45.58 464.89L51.28 464.89L51.28 484.46L45.58 484.46L38.26 473.71L38.26 484.46L32.57 484.46L32.57 464.89Z" id="f4TWSpZv"></path><path d="M55.54 464.89L61.6 464.89L61.6 484.46L55.54 484.46L55.54 464.89Z" id="dnT3LMZiG"></path><path d="M63.99 464.89L70.32 464.89L74.72 478.97L79.06 464.89L85.2 464.89L77.94 484.46L71.39 484.46L63.99 464.89Z" id="a1rH7iyIFv"></path><path d="M87.18 464.89L103.38 464.89L103.38 469.07L93.24 469.07L93.24 472.18L102.65 472.18L102.65 476.17L93.24 476.17L93.24 480.02L103.68 480.02L103.68 484.46L87.18 484.46L87.18 464.89Z" id="g2mClsz9ot"></path><path d="M117.95 464.91L118.34 464.92L118.71 464.95L119.04 464.97L119.35 465L119.63 465.04L119.88 465.07L120.12 465.11L120.33 465.15L120.52 465.19L120.69 465.22L120.84 465.26L120.98 465.29L121.1 465.32L121.2 465.34L121.29 465.36L121.37 465.37L121.61 465.46L121.83 465.55L122.04 465.66L122.24 465.77L122.42 465.89L122.59 466.01L122.75 466.13L122.9 466.26L123.03 466.38L123.15 466.5L123.26 466.61L123.36 466.72L123.45 466.82L123.53 466.92L123.6 467L123.66 467.07L123.71 467.12L123.76 467.16L123.9 467.38L124.02 467.6L124.13 467.82L124.23 468.04L124.31 468.27L124.38 468.48L124.43 468.7L124.48 468.91L124.52 469.11L124.55 469.3L124.57 469.48L124.59 469.65L124.61 469.8L124.62 469.94L124.63 470.07L124.64 470.17L124.65 470.26L124.66 470.32L124.66 470.59L124.64 470.84L124.62 471.08L124.58 471.3L124.55 471.51L124.5 471.71L124.45 471.9L124.4 472.07L124.34 472.23L124.29 472.38L124.23 472.52L124.18 472.64L124.13 472.76L124.09 472.86L124.05 472.94L124.01 473.02L123.99 473.09L123.97 473.14L123.85 473.33L123.73 473.51L123.6 473.67L123.47 473.83L123.34 473.98L123.21 474.11L123.08 474.24L122.95 474.35L122.83 474.46L122.71 474.56L122.59 474.65L122.49 474.73L122.39 474.8L122.3 474.86L122.22 474.92L122.15 474.97L122.1 475.01L122.06 475.05L121.93 475.12L121.79 475.19L121.65 475.26L121.51 475.32L121.36 475.38L121.21 475.44L121.07 475.49L120.93 475.54L120.79 475.58L120.66 475.62L120.53 475.66L120.41 475.69L120.3 475.72L120.12 475.77L120.04 475.79L119.98 475.81L119.94 475.82L120.11 475.88L120.27 475.94L120.42 475.99L120.56 476.05L120.68 476.1L120.79 476.15L120.9 476.2L120.99 476.25L121.07 476.29L121.15 476.33L121.22 476.37L121.28 476.4L121.33 476.43L121.42 476.49L121.45 476.51L121.49 476.53L121.51 476.54L121.57 476.59L121.63 476.64L121.7 476.69L121.76 476.76L121.83 476.82L121.89 476.89L121.96 476.96L122.02 477.03L122.08 477.11L122.15 477.18L122.2 477.25L122.26 477.31L122.31 477.37L122.39 477.47L122.43 477.51L122.46 477.55L122.48 477.57L122.55 477.66L122.61 477.74L122.68 477.82L122.74 477.9L122.8 477.98L122.86 478.05L122.91 478.13L122.96 478.2L123.01 478.27L123.06 478.33L123.1 478.4L123.14 478.46L123.18 478.52L123.21 478.58L123.25 478.63L123.28 478.68L123.3 478.73L123.33 478.78L126.25 484.46L119.42 484.46L116.19 478.48L116.09 478.29L115.99 478.12L115.9 477.97L115.82 477.83L115.73 477.71L115.66 477.6L115.58 477.51L115.52 477.42L115.45 477.34L115.39 477.28L115.34 477.22L115.29 477.17L115.25 477.12L115.17 477.05L115.14 477.02L115.12 476.99L115.1 476.97L115.02 476.92L114.95 476.87L114.87 476.83L114.8 476.79L114.72 476.75L114.64 476.72L114.56 476.68L114.48 476.65L114.4 476.63L114.32 476.6L114.23 476.58L114.15 476.56L114.06 476.55L113.97 476.54L113.89 476.53L113.8 476.52L113.71 476.52L113.61 476.51L113.08 476.51L113.08 484.46L107.01 484.46L107.01 464.89L117.08 464.89L117.54 464.89L117.95 464.91ZM113.08 472.82L115.63 472.82L116.03 472.78L116.53 472.69L116.97 472.6L117.23 472.55L117.62 472.41L117.91 472.22L118.1 472.04L118.21 471.94L118.42 471.57L118.53 471.23L118.57 470.96L118.59 470.8L118.51 470.2L118.31 469.77L118.11 469.5L117.99 469.35L117.63 469.13L117.13 468.97L116.5 468.87L115.74 468.84L113.08 468.84L113.08 472.82Z" id="f1DKXfWK9r"></path><path d="M132.89 477.62C133.08 479.02 133.57 479.54 133.65 479.76C134.58 480.95 136.05 480.83 136.32 480.95C137.61 480.95 138.11 480.4 138.31 480.34C139.02 479.73 138.94 479.07 139.02 478.93C139.02 478.17 138.42 477.7 138.35 477.57C137.68 476.97 135.56 476.55 135.25 476.43C131.28 475.54 130.15 474.3 129.58 474.06C127.87 472.58 128.04 470.66 127.87 470.28C127.87 468.77 128.65 467.72 128.74 467.44C129.62 466.09 131.11 465.54 131.37 465.33C133.13 464.56 135.7 464.63 136.19 464.56C139.94 464.56 141.33 465.82 141.9 465.96C143.22 466.88 144 468.36 144.25 470.39C140.83 470.59 138.93 470.7 138.55 470.72C138.32 469.4 137.68 468.99 137.59 468.8C136.87 468.2 135.79 468.26 135.59 468.2C134.53 468.2 134.16 468.61 134 468.65C133.46 469.09 133.52 469.63 133.46 469.73C133.46 470.2 133.86 470.49 133.9 470.58C134.33 470.96 135.73 471.22 135.93 471.3C139.9 472.15 141.04 472.86 141.6 473.03C143.33 473.9 143.85 474.98 144.1 475.19C144.89 476.49 144.81 477.8 144.89 478.09C144.89 479.97 143.95 481.21 143.85 481.56C142.81 483.15 141.23 483.73 140.94 483.97C139.07 484.79 136.7 484.71 136.23 484.79C131.24 484.79 130 483.06 129.31 482.87C128.03 481.59 127.31 479.96 127.14 477.98C130.59 477.77 132.51 477.65 132.89 477.62Z" id="e1SOqL1vZd"></path><path d="M148.17 464.89L154.23 464.89L154.23 484.46L148.17 484.46L148.17 464.89Z" id="fqsRzOfef"></path><path d="M168.74 464.93L169.23 464.98L169.68 465.04L170.08 465.11L170.43 465.18L170.75 465.26L171.03 465.34L171.27 465.42L171.48 465.48L171.65 465.54L171.79 465.58L171.9 465.61L172.27 465.78L172.6 465.97L172.91 466.16L173.19 466.36L173.44 466.55L173.67 466.74L173.87 466.93L174.05 467.1L174.2 467.26L174.34 467.4L174.45 467.52L174.54 467.62L174.61 467.68L174.85 467.99L175.06 468.31L175.24 468.62L175.4 468.92L175.55 469.22L175.67 469.5L175.78 469.77L175.87 470.01L175.95 470.23L176.02 470.43L176.08 470.59L176.12 470.72L176.16 470.82L176.26 471.23L176.35 471.63L176.42 472.01L176.47 472.39L176.52 472.74L176.55 473.08L176.57 473.39L176.59 473.68L176.61 473.93L176.62 474.16L176.62 474.35L176.63 474.5L176.64 474.61L176.63 475.3L176.6 475.92L176.55 476.49L176.49 477L176.42 477.45L176.35 477.85L176.27 478.21L176.19 478.51L176.12 478.78L176.05 479L175.99 479.19L175.95 479.35L175.92 479.48L175.75 479.86L175.57 480.21L175.39 480.54L175.2 480.84L175.01 481.11L174.83 481.35L174.66 481.57L174.49 481.76L174.34 481.93L174.21 482.07L174.09 482.2L174.01 482.3L173.95 482.37L173.65 482.62L173.37 482.85L173.09 483.04L172.82 483.21L172.57 483.35L172.33 483.47L172.1 483.57L171.89 483.66L171.71 483.73L171.55 483.79L171.41 483.84L171.3 483.88L171.22 483.92L170.92 484L170.62 484.07L170.33 484.14L170.03 484.2L169.75 484.25L169.47 484.3L169.19 484.34L168.92 484.38L168.65 484.4L168.38 484.43L168.13 484.44L167.87 484.45L167.62 484.46L158.64 484.46L158.64 464.89L167.62 464.89L168.21 464.9L168.74 464.93ZM166.17 480.01L167.15 479.97L167.86 479.88L168.34 479.76L168.66 479.66L168.86 479.6L169.29 479.29L169.61 478.94L169.85 478.59L170.01 478.3L170.12 478.13L170.33 477.4L170.46 476.57L170.52 475.77L170.55 475.11L170.57 474.73L170.47 473.13L170.24 472.01L169.96 471.26L169.7 470.78L169.55 470.47L169.1 470.06L168.53 469.73L167.86 469.5L167.08 469.37L166.19 469.32L164.68 469.32L164.68 480.01L166.17 480.01Z" id="bhpm1HbP4"></path><path d="M192.82 484.46L191.86 481.23L184.97 481.23L184.03 484.46L177.85 484.46L185.2 464.89L191.79 464.89L199.15 484.46L192.82 484.46ZM190.59 476.99L188.43 469.96L186.28 476.99L190.59 476.99Z" id="a3N3rGURlL"></path><path d="M211.27 464.93L211.76 464.98L212.21 465.04L212.61 465.11L212.96 465.18L213.28 465.26L213.56 465.34L213.8 465.42L214 465.48L214.18 465.54L214.32 465.58L214.43 465.61L214.8 465.78L215.13 465.97L215.44 466.16L215.72 466.36L215.97 466.55L216.2 466.74L216.4 466.93L216.58 467.1L216.73 467.26L216.87 467.4L216.98 467.52L217.07 467.62L217.14 467.68L217.37 467.99L217.58 468.31L217.77 468.62L217.93 468.92L218.08 469.22L218.2 469.5L218.31 469.77L218.4 470.01L218.48 470.23L218.55 470.43L218.6 470.59L218.65 470.72L218.69 470.82L218.79 471.23L218.88 471.63L218.95 472.01L219 472.39L219.04 472.74L219.08 473.08L219.1 473.39L219.12 473.68L219.13 473.93L219.14 474.16L219.15 474.35L219.16 474.5L219.17 474.61L219.16 475.3L219.13 475.92L219.08 476.49L219.02 477L218.95 477.45L218.88 477.85L218.8 478.21L218.72 478.51L218.64 478.78L218.58 479L218.52 479.19L218.48 479.35L218.45 479.48L218.28 479.86L218.1 480.21L217.92 480.54L217.73 480.84L217.54 481.11L217.36 481.35L217.18 481.57L217.02 481.76L216.87 481.93L216.74 482.07L216.62 482.2L216.53 482.3L216.47 482.37L216.18 482.62L215.9 482.85L215.62 483.04L215.35 483.21L215.1 483.35L214.85 483.47L214.63 483.57L214.42 483.66L214.24 483.73L214.08 483.79L213.94 483.84L213.83 483.88L213.75 483.92L213.45 484L213.15 484.07L212.85 484.14L212.56 484.2L212.28 484.25L212 484.3L211.72 484.34L211.45 484.38L211.18 484.4L210.91 484.43L210.65 484.44L210.4 484.45L210.15 484.46L201.17 484.46L201.17 464.89L210.15 464.89L210.74 464.9L211.27 464.93ZM208.69 480.01L209.68 479.97L210.38 479.88L210.87 479.76L211.19 479.66L211.39 479.6L211.82 479.29L212.14 478.94L212.38 478.59L212.54 478.3L212.64 478.13L212.86 477.4L212.99 476.57L213.05 475.77L213.08 475.11L213.1 474.73L213 473.13L212.77 472.01L212.48 471.26L212.23 470.78L212.08 470.47L211.62 470.06L211.06 469.73L210.39 469.5L209.61 469.37L208.72 469.32L207.21 469.32L207.21 480.01L208.69 480.01Z" id="cvpMrUOdq"></path><path d="M231.49 464.89L237.14 464.89L244.5 475.71L244.5 464.89L250.2 464.89L250.2 484.46L244.5 484.46L237.18 473.71L237.18 484.46L231.49 484.46L231.49 464.89Z" id="aZ2jXPqAN"></path><path d="M267.22 484.46L266.26 481.23L259.37 481.23L258.42 484.46L252.24 484.46L259.6 464.89L266.19 464.89L273.54 484.46L267.22 484.46ZM264.99 476.99L262.83 469.96L260.68 476.99L264.99 476.99Z" id="axlQmGz0z"></path><path d="M293.81 478.06C293.27 480.29 292.29 481.41 292.13 481.79C290.98 483.28 289.56 483.82 289.27 484.04C287.58 484.8 285.38 484.73 284.95 484.8C281.76 484.8 280.25 483.97 279.73 483.88C277.71 482.95 276.59 480.94 276.24 480.61C274.78 478.28 274.92 475.23 274.78 474.63C274.78 469.77 277.09 467.92 277.35 467.17C279.94 464.56 283.93 464.82 284.67 464.56C288.36 464.56 289.89 465.9 290.47 466.05C291.89 467.05 292.94 468.58 293.62 470.64C290.42 471.35 288.64 471.75 288.28 471.83C288 470.94 287.75 470.65 287.7 470.52C287.19 469.83 286.58 469.56 286.45 469.45C285.72 469.08 284.98 469.12 284.81 469.08C282.76 469.08 281.98 470.57 281.66 470.74C280.84 471.96 280.92 474.21 280.84 474.59C280.84 477.85 281.72 478.62 281.82 479.06C282.81 480.26 284.32 480.14 284.6 480.26C286.33 480.26 286.95 479.39 287.21 479.29C287.81 478.64 288.24 477.7 288.51 476.46C291.69 477.42 293.45 477.96 293.81 478.06Z" id="c142yQ6F5y"></path><path d="M296.99 464.89L303.05 464.89L303.05 484.46L296.99 484.46L296.99 464.89Z" id="b19UfGSbwl"></path><path d="M318.92 464.73L319.85 464.93L320.68 465.18L321.4 465.47L322.04 465.77L322.58 466.08L323.05 466.39L323.44 466.66L323.77 466.9L324.04 467.08L324.25 467.19L324.85 467.87L325.34 468.59L325.74 469.33L326.05 470.09L326.29 470.84L326.46 471.56L326.59 472.25L326.68 472.88L326.74 473.44L326.79 473.91L326.83 474.28L326.89 474.53L326.87 475.35L326.81 476.09L326.73 476.77L326.62 477.39L326.49 477.93L326.35 478.42L326.22 478.84L326.08 479.21L325.96 479.52L325.86 479.78L325.78 479.99L325.73 480.16L325.43 480.68L325.11 481.15L324.77 481.57L324.43 481.94L324.09 482.27L323.76 482.56L323.44 482.81L323.15 483.02L322.9 483.2L322.68 483.35L322.51 483.48L322.39 483.57L321.84 483.85L321.27 484.08L320.7 484.26L320.14 484.4L319.59 484.51L319.07 484.59L318.58 484.65L318.13 484.69L317.73 484.72L317.4 484.74L317.14 484.76L316.96 484.79L316.17 484.77L315.45 484.72L314.79 484.64L314.19 484.54L313.66 484.42L313.18 484.3L312.77 484.18L312.41 484.05L312.1 483.94L311.84 483.85L311.64 483.78L311.48 483.73L310.96 483.45L310.49 483.14L310.07 482.82L309.68 482.47L309.34 482.13L309.04 481.8L308.78 481.47L308.55 481.18L308.36 480.91L308.2 480.69L308.07 480.51L307.97 480.4L307.75 480.01L307.56 479.61L307.38 479.19L307.22 478.75L307.08 478.3L306.96 477.83L306.85 477.34L306.77 476.85L306.7 476.33L306.66 475.8L306.63 475.25L306.62 474.69L309.29 467.23L309.98 466.62L310.71 466.12L311.47 465.72L312.24 465.41L312.99 465.17L313.73 464.99L314.42 464.86L315.06 464.77L315.62 464.71L316.1 464.66L316.47 464.61L316.72 464.56L317.88 464.6L318.92 464.73ZM315.2 469.44L314.67 469.73L314.26 470.04L313.97 470.29L313.77 470.43L313.43 470.91L313.16 471.48L312.94 472.15L312.79 472.91L312.7 473.76L312.67 474.71L313.76 478.97L314.35 479.51L314.96 479.85L315.56 480.05L316.1 480.16L316.51 480.21L316.76 480.26L317.64 480.18L318.34 479.96L318.89 479.68L319.3 479.38L319.59 479.13L319.78 479L320.22 478.25L320.51 477.35L320.67 476.42L320.76 475.55L320.8 474.85L320.85 474.45L320.77 473.22L320.58 472.26L320.33 471.55L320.07 471.03L319.85 470.66L319.73 470.42L319.14 469.88L318.52 469.54L317.91 469.34L317.38 469.24L316.96 469.18L316.71 469.13L315.88 469.22L315.2 469.44Z" id="a4l2Nt0Wo"></path><path d="M330.19 464.89L335.83 464.89L343.2 475.71L343.2 464.89L348.9 464.89L348.9 484.46L343.2 484.46L335.87 473.71L335.87 484.46L330.19 484.46L330.19 464.89Z" id="d5en5gzyPv"></path><path d="M365.91 484.46L364.95 481.23L358.07 481.23L357.12 484.46L350.94 484.46L358.29 464.89L364.89 464.89L372.24 484.46L365.91 484.46ZM363.69 476.99L361.52 469.96L359.37 476.99L363.69 476.99Z" id="a87PlE3c6"></path><path d="M374.18 464.89L380.23 464.89L380.23 479.64L389.66 479.64L389.66 484.46L374.18 484.46L374.18 464.89Z" id="c2oEHQMEQJ"></path><path d="M411.7 464.93L412.19 464.98L412.63 465.04L413.03 465.11L413.39 465.18L413.7 465.26L413.98 465.34L414.22 465.42L414.43 465.48L414.6 465.54L414.74 465.58L414.86 465.61L415.22 465.78L415.56 465.97L415.86 466.16L416.14 466.36L416.39 466.55L416.62 466.74L416.82 466.93L417 467.1L417.16 467.26L417.29 467.4L417.4 467.52L417.49 467.62L417.57 467.68L417.8 467.99L418.01 468.31L418.19 468.62L418.36 468.92L418.5 469.22L418.63 469.5L418.74 469.77L418.83 470.01L418.91 470.23L418.97 470.43L419.03 470.59L419.08 470.72L419.11 470.82L419.22 471.23L419.3 471.63L419.37 472.01L419.43 472.39L419.47 472.74L419.5 473.08L419.53 473.39L419.55 473.68L419.56 473.93L419.57 474.16L419.58 474.35L419.59 474.5L419.6 474.61L419.58 475.3L419.55 475.92L419.51 476.49L419.45 477L419.38 477.45L419.3 477.85L419.22 478.21L419.14 478.51L419.07 478.78L419 479L418.94 479.19L418.9 479.35L418.87 479.48L418.71 479.86L418.53 480.21L418.34 480.54L418.15 480.84L417.97 481.11L417.78 481.35L417.61 481.57L417.44 481.76L417.29 481.93L417.16 482.07L417.05 482.2L416.96 482.3L416.9 482.37L416.61 482.62L416.32 482.85L416.05 483.04L415.78 483.21L415.52 483.35L415.28 483.47L415.05 483.57L414.85 483.66L414.66 483.73L414.5 483.79L414.36 483.84L414.26 483.88L414.18 483.92L413.87 484L413.57 484.07L413.28 484.14L412.99 484.2L412.7 484.25L412.42 484.3L412.14 484.34L411.87 484.38L411.6 484.4L411.34 484.43L411.08 484.44L410.82 484.45L410.57 484.46L401.59 484.46L401.59 464.89L410.57 464.89L411.16 464.9L411.7 464.93ZM409.12 480.01L410.1 479.97L410.81 479.88L411.3 479.76L411.61 479.66L411.81 479.6L412.24 479.29L412.57 478.94L412.8 478.59L412.97 478.3L413.07 478.13L413.29 477.4L413.41 476.57L413.47 475.77L413.5 475.11L413.52 474.73L413.43 473.13L413.2 472.01L412.91 471.26L412.65 470.78L412.51 470.47L412.05 470.06L411.48 469.73L410.81 469.5L410.03 469.37L409.15 469.32L407.64 469.32L407.64 480.01L409.12 480.01Z" id="b2W10BUQqy"></path><path d="M422.76 464.89L438.96 464.89L438.96 469.07L428.82 469.07L428.82 472.18L438.23 472.18L438.23 476.17L428.82 476.17L428.82 480.02L439.26 480.02L439.26 484.46L422.76 484.46L422.76 464.89Z" id="c7fi97SkI"></path><path d="M451.54 464.89L459.5 464.89L462.57 476.79L465.62 464.89L473.55 464.89L473.55 484.46L468.61 484.46L468.61 469.53L464.78 484.46L460.31 484.46L456.5 469.53L456.5 484.46L451.54 484.46L451.54 464.89Z" id="b1QtoqUqpo"></path><path d="M488.96 464.73L489.89 464.93L490.71 465.18L491.43 465.47L492.07 465.77L492.61 466.08L493.08 466.39L493.47 466.66L493.8 466.9L494.07 467.08L494.28 467.19L494.88 467.87L495.38 468.59L495.77 469.33L496.08 470.09L496.32 470.84L496.49 471.56L496.62 472.25L496.71 472.88L496.77 473.44L496.82 473.91L496.87 474.28L496.92 474.53L496.9 475.35L496.85 476.09L496.76 476.77L496.65 477.39L496.52 477.93L496.39 478.42L496.25 478.84L496.12 479.21L495.99 479.52L495.89 479.78L495.81 479.99L495.76 480.16L495.46 480.68L495.14 481.15L494.8 481.57L494.46 481.94L494.12 482.27L493.79 482.56L493.47 482.81L493.18 483.02L492.93 483.2L492.71 483.35L492.54 483.48L492.43 483.57L491.87 483.85L491.31 484.08L490.74 484.26L490.17 484.4L489.62 484.51L489.1 484.59L488.61 484.65L488.16 484.69L487.77 484.72L487.43 484.74L487.17 484.76L486.99 484.79L486.2 484.77L485.48 484.72L484.82 484.64L484.22 484.54L483.69 484.42L483.22 484.3L482.8 484.18L482.44 484.05L482.13 483.94L481.88 483.85L481.67 483.78L481.51 483.73L480.99 483.45L480.52 483.14L480.1 482.82L479.72 482.47L479.38 482.13L479.08 481.8L478.81 481.47L478.59 481.18L478.39 480.91L478.23 480.69L478.1 480.51L478 480.4L477.78 480.01L477.59 479.61L477.41 479.19L477.25 478.75L477.11 478.3L476.99 477.83L476.89 477.34L476.8 476.85L476.74 476.33L476.69 475.8L476.66 475.25L476.65 474.69L479.32 467.23L480.01 466.62L480.75 466.12L481.5 465.72L482.27 465.41L483.03 465.17L483.76 464.99L484.45 464.86L485.09 464.77L485.65 464.71L486.13 464.66L486.5 464.61L486.75 464.56L487.91 464.6L488.96 464.73ZM485.23 469.44L484.7 469.73L484.29 470.04L484 470.29L483.81 470.43L483.47 470.91L483.19 471.48L482.97 472.15L482.82 472.91L482.73 473.76L482.7 474.71L483.79 478.97L484.38 479.51L485 479.85L485.6 480.05L486.13 480.16L486.54 480.21L486.79 480.26L487.67 480.18L488.38 479.96L488.92 479.68L489.33 479.38L489.62 479.13L489.81 479L490.25 478.25L490.54 477.35L490.7 476.42L490.79 475.55L490.84 474.85L490.88 474.45L490.8 473.22L490.61 472.26L490.36 471.55L490.1 471.03L489.88 470.66L489.76 470.42L489.17 469.88L488.55 469.54L487.95 469.34L487.41 469.24L486.99 469.18L486.74 469.13L485.91 469.22L485.23 469.44Z" id="h7LdCDfWF3"></path><path d="M511.43 464.69L512.26 464.84L513.01 465.03L513.68 465.25L514.29 465.5L514.82 465.77L515.3 466.03L515.71 466.29L516.07 466.54L516.38 466.76L516.64 466.95L516.86 467.09L517.04 467.17L517.56 467.75L518.01 468.37L518.37 469.01L518.68 469.67L518.92 470.33L519.11 470.98L519.26 471.62L519.37 472.22L519.45 472.79L519.51 473.31L519.56 473.76L519.6 474.15L519.64 474.45L519.69 474.66L519.68 475.27L519.65 475.86L519.59 476.44L519.52 477L519.42 477.54L519.3 478.06L519.16 478.56L518.99 479.05L518.81 479.52L518.6 479.97L518.37 480.4L518.12 480.82L517.85 481.22L517.56 481.6L519.04 482.59L519.11 482.63L519.19 482.67L519.28 482.72L519.36 482.76L519.46 482.81L519.55 482.86L519.65 482.9L519.75 482.95L519.86 483L519.97 483.05L520.08 483.11L520.19 483.16L520.31 483.21L520.44 483.27L518.76 486.66L518.49 486.52L518.23 486.39L517.99 486.26L517.75 486.12L517.53 485.99L517.32 485.87L517.12 485.75L516.94 485.64L516.78 485.53L516.63 485.44L516.51 485.35L516.4 485.28L516.31 485.23L516.25 485.19L516 485.02L515.77 484.86L515.57 484.72L515.39 484.59L515.24 484.48L515.1 484.38L514.98 484.29L514.88 484.21L514.79 484.14L514.72 484.08L514.65 484.03L514.6 483.99L514.55 483.95L514.51 483.92L514.08 484.09L513.63 484.24L513.18 484.36L512.73 484.46L512.29 484.54L511.86 484.6L511.44 484.65L511.05 484.68L510.69 484.71L510.36 484.73L510.07 484.75L509.83 484.76L509.63 484.77L509.5 484.79L508.58 484.76L507.74 484.67L506.97 484.54L506.27 484.37L505.64 484.17L505.08 483.95L504.57 483.71L504.12 483.48L503.73 483.25L503.38 483.03L503.09 482.83L502.84 482.67L502.63 482.54L502.46 482.47L501.86 481.86L501.35 481.21L500.93 480.55L500.58 479.87L500.3 479.19L500.08 478.51L499.91 477.86L499.79 477.24L499.69 476.66L499.62 476.13L499.57 475.66L499.52 475.27L499.48 474.96L499.42 474.74L499.45 473.75L499.55 472.84L499.7 472.02L499.9 471.27L500.13 470.6L500.38 470L500.65 469.46L500.92 468.98L501.18 468.57L501.43 468.21L501.66 467.9L501.84 467.64L501.99 467.42L502.08 467.24L502.67 466.71L503.29 466.26L503.93 465.89L504.59 465.58L505.25 465.34L505.89 465.14L506.52 464.99L507.12 464.88L507.68 464.8L508.19 464.74L508.64 464.69L509.02 464.65L509.31 464.61L509.52 464.56L510.52 464.59L511.43 464.69ZM508.19 469.37L507.69 469.6L507.29 469.86L506.98 470.12L506.75 470.32L506.59 470.43L506.18 471.04L505.89 471.73L505.71 472.44L505.6 473.12L505.54 473.72L505.5 474.19L505.47 474.47L505.52 475.71L505.66 476.69L505.86 477.45L506.08 478.02L506.29 478.44L506.46 478.75L506.56 478.97L507.05 479.44L507.58 479.77L508.11 479.98L508.6 480.11L509.03 480.18L509.36 480.22L509.56 480.26L509.81 480.26L510.04 480.24L510.24 480.22L510.41 480.2L510.55 480.17L510.65 480.15L510.72 480.14L510.49 479.94L510.22 479.73L509.91 479.53L509.57 479.33L509.19 479.14L508.77 478.94L508.32 478.76L509.27 476.58L509.58 476.65L509.84 476.71L510.05 476.77L510.22 476.83L510.35 476.88L510.44 476.92L510.51 476.94L510.74 477.06L511.02 477.24L511.33 477.44L511.64 477.64L511.91 477.83L512.13 477.98L512.26 478.06L512.35 478.12L512.44 478.19L512.53 478.25L512.63 478.31L512.72 478.37L512.82 478.44L512.93 478.5L513.48 475.53L513.65 474.63L513.59 473.49L513.45 472.57L513.24 471.86L513.02 471.31L512.81 470.91L512.63 470.61L512.54 470.4L512.04 469.94L511.51 469.62L510.98 469.41L510.48 469.29L510.05 469.22L509.71 469.18L509.51 469.13L508.79 469.2L508.19 469.37Z" id="a2C9xV1hyB"></path><path d="M535.68 464.89L541.71 464.89C541.71 471.89 541.71 475.78 541.71 476.55C541.71 478.29 541.22 479.51 541.16 479.84C540.63 481.37 539.64 482.26 539.47 482.53C538.32 483.68 537.3 483.99 537.05 484.15C535.29 484.8 533.25 484.74 532.82 484.8C531.4 484.8 530.01 484.62 529.7 484.6C528.02 484.4 527.17 483.89 526.88 483.81C525.75 483.21 525.01 482.29 524.8 482.12C523.87 481.03 523.65 480.09 523.52 479.86C523.15 478.62 522.96 477.52 522.96 476.55L522.96 464.89L528.99 464.89C528.99 472.06 528.99 476.04 528.99 476.83C528.99 478.44 529.79 479.09 529.87 479.34C530.77 480.24 532.1 480.15 532.34 480.24C533.9 480.24 534.54 479.45 534.79 479.36C535.38 478.76 535.68 477.92 535.68 476.83L535.68 464.89Z" id="cxaN3Wl9m"></path><path d="M545.7 464.89L561.9 464.89L561.9 469.07L551.76 469.07L551.76 472.18L561.17 472.18L561.17 476.17L551.76 476.17L551.76 480.02L562.2 480.02L562.2 484.46L545.7 484.46L545.7 464.89Z" id="c4O7RQ66ea"></path><path d="M575.28 477.37L575.28 473.3L584.63 473.3C584.63 478.3 584.63 481.08 584.63 481.64C581.94 483.47 580.35 483.89 579.88 484.13C577.82 484.79 575.48 484.72 574.99 484.79C571.51 484.79 569.87 483.72 569.31 483.6C567.12 482.41 566.24 480.42 565.9 480.06C564.7 477.72 564.82 475.21 564.7 474.67C564.7 471.47 565.89 469.66 566.02 469.11C567.34 466.73 569.51 465.86 569.89 465.5C571.88 464.56 574.71 464.65 575.24 464.56C578.49 464.56 579.6 465.09 580.09 465.14C581.7 465.73 582.49 466.79 582.76 466.97C583.47 467.79 584 468.83 584.36 470.1C580.86 470.72 578.92 471.07 578.53 471.14C578.17 470.03 577.42 469.61 577.3 469.44C576.45 468.85 575.33 468.91 575.11 468.85C573.12 468.85 572.25 470.1 571.93 470.24C570.76 471.62 570.88 474.17 570.76 474.61C570.76 477.78 571.83 478.69 571.95 479.14C573.15 480.5 574.95 480.37 575.28 480.5C576.3 480.5 577.03 480.24 577.22 480.21C577.83 480.02 578.54 479.68 579.33 479.21L579.33 477.37L575.28 477.37Z" id="dqcz6Gelq"></path><path d="M600.95 464.89L606.98 464.89C606.98 471.89 606.98 475.78 606.98 476.55C606.98 478.29 606.49 479.51 606.43 479.84C605.9 481.37 604.91 482.26 604.74 482.53C603.59 483.68 602.56 483.99 602.32 484.15C600.56 484.8 598.52 484.74 598.09 484.8C596.66 484.8 595.28 484.62 594.97 484.6C593.29 484.4 592.44 483.89 592.15 483.81C591.02 483.21 590.28 482.29 590.07 482.12C589.14 481.03 588.92 480.09 588.79 479.86C588.42 478.62 588.23 477.52 588.23 476.55L588.23 464.89L594.26 464.89C594.26 472.06 594.26 476.04 594.26 476.83C594.26 478.44 595.05 479.09 595.14 479.34C596.04 480.24 597.36 480.15 597.61 480.24C599.17 480.24 599.81 479.45 600.05 479.36C600.65 478.76 600.95 477.92 600.95 476.83L600.95 464.89Z" id="cITeRqBw4"></path><path d="M623.98 484.46L623.02 481.23L616.14 481.23L615.19 484.46L609.01 484.46L616.36 464.89L622.96 464.89L630.31 484.46L623.98 484.46ZM621.75 476.99L619.59 469.96L617.44 476.99L621.75 476.99Z" id="c47q0OhUHZ"></path></defs><g><g><g><use xlink:href="#b1zhAl0izL" opacity="1" fill="#373774" fill-opacity="1"></use><g><use xlink:href="#b1zhAl0izL" opacity="1" fill-opacity="0" stroke="#000000" stroke-width="1" stroke-opacity="0"></use></g></g><g><use xlink:href="#c1dj6R4FAA" opacity="1" fill="#2db9af" fill-opacity="1"></use><g><use xlink:href="#c1dj6R4FAA" opacity="1" fill-opacity="0" stroke="#000000" stroke-width="1" stroke-opacity="0"></use></g></g><g><use xlink:href="#b2p6DVakLC" opacity="1" fill="#373774" fill-opacity="1"></use><g><use xlink:href="#b2p6DVakLC" opacity="1" fill-opacity="0" stroke="#000000" stroke-width="1" stroke-opacity="0"></use></g></g><g><use xlink:href="#g33B7cVKx" opacity="1" fill="#2db9af" fill-opacity="1"></use><g><use xlink:href="#g33B7cVKx" opacity="1" fill-opacity="0" stroke="#000000" stroke-width="1" stroke-opacity="0"></use></g></g><g><use xlink:href="#a5LbWphq8S" opacity="1" fill="#373774" fill-opacity="1"></use><g><use xlink:href="#a5LbWphq8S" opacity="1" fill-opacity="0" stroke="#000000" stroke-width="1" stroke-opacity="0"></use></g></g><g><use xlink:href="#c5ZmeNEqD" opacity="1" fill="#373774" fill-opacity="1"></use><g><use xlink:href="#c5ZmeNEqD" opacity="1" fill-opacity="0" stroke="#000000" stroke-width="1" stroke-opacity="0"></use></g></g><g><use xlink:href="#c9fyUHaoS" opacity="1" fill="#373774" fill-opacity="1"></use><g><use xlink:href="#c9fyUHaoS" opacity="1" fill-opacity="0" stroke="#000000" stroke-width="1" stroke-opacity="0"></use></g></g><g><use xlink:href="#eaEnHrpmYn" opacity="1" fill="#373774" fill-opacity="1"></use><g><use xlink:href="#eaEnHrpmYn" opacity="1" fill-opacity="0" stroke="#000000" stroke-width="1" stroke-opacity="0"></use></g></g><g><use xlink:href="#g3n5O8Hf7x" opacity="1" fill="#373774" fill-opacity="1"></use><g><use xlink:href="#g3n5O8Hf7x" opacity="1" fill-opacity="0" stroke="#000000" stroke-width="1" stroke-opacity="0"></use></g></g><g><use xlink:href="#f4TWSpZv" opacity="1" fill="#373774" fill-opacity="1"></use><g><use xlink:href="#f4TWSpZv" opacity="1" fill-opacity="0" stroke="#000000" stroke-width="1" stroke-opacity="0"></use></g></g><g><use xlink:href="#dnT3LMZiG" opacity="1" fill="#373774" fill-opacity="1"></use><g><use xlink:href="#dnT3LMZiG" opacity="1" fill-opacity="0" stroke="#000000" stroke-width="1" stroke-opacity="0"></use></g></g><g><use xlink:href="#a1rH7iyIFv" opacity="1" fill="#373774" fill-opacity="1"></use><g><use xlink:href="#a1rH7iyIFv" opacity="1" fill-opacity="0" stroke="#000000" stroke-width="1" stroke-opacity="0"></use></g></g><g><use xlink:href="#g2mClsz9ot" opacity="1" fill="#373774" fill-opacity="1"></use><g><use xlink:href="#g2mClsz9ot" opacity="1" fill-opacity="0" stroke="#000000" stroke-width="1" stroke-opacity="0"></use></g></g><g><use xlink:href="#f1DKXfWK9r" opacity="1" fill="#373774" fill-opacity="1"></use><g><use xlink:href="#f1DKXfWK9r" opacity="1" fill-opacity="0" stroke="#000000" stroke-width="1" stroke-opacity="0"></use></g></g><g><use xlink:href="#e1SOqL1vZd" opacity="1" fill="#373774" fill-opacity="1"></use><g><use xlink:href="#e1SOqL1vZd" opacity="1" fill-opacity="0" stroke="#000000" stroke-width="1" stroke-opacity="0"></use></g></g><g><use xlink:href="#fqsRzOfef" opacity="1" fill="#373774" fill-opacity="1"></use><g><use xlink:href="#fqsRzOfef" opacity="1" fill-opacity="0" stroke="#000000" stroke-width="1" stroke-opacity="0"></use></g></g><g><use xlink:href="#bhpm1HbP4" opacity="1" fill="#373774" fill-opacity="1"></use><g><use xlink:href="#bhpm1HbP4" opacity="1" fill-opacity="0" stroke="#000000" stroke-width="1" stroke-opacity="0"></use></g></g><g><use xlink:href="#a3N3rGURlL" opacity="1" fill="#373774" fill-opacity="1"></use><g><use xlink:href="#a3N3rGURlL" opacity="1" fill-opacity="0" stroke="#000000" stroke-width="1" stroke-opacity="0"></use></g></g><g><use xlink:href="#cvpMrUOdq" opacity="1" fill="#373774" fill-opacity="1"></use><g><use xlink:href="#cvpMrUOdq" opacity="1" fill-opacity="0" stroke="#000000" stroke-width="1" stroke-opacity="0"></use></g></g><g><use xlink:href="#aZ2jXPqAN" opacity="1" fill="#373774" fill-opacity="1"></use><g><use xlink:href="#aZ2jXPqAN" opacity="1" fill-opacity="0" stroke="#000000" stroke-width="1" stroke-opacity="0"></use></g></g><g><use xlink:href="#axlQmGz0z" opacity="1" fill="#373774" fill-opacity="1"></use><g><use xlink:href="#axlQmGz0z" opacity="1" fill-opacity="0" stroke="#000000" stroke-width="1" stroke-opacity="0"></use></g></g><g><use xlink:href="#c142yQ6F5y" opacity="1" fill="#373774" fill-opacity="1"></use><g><use xlink:href="#c142yQ6F5y" opacity="1" fill-opacity="0" stroke="#000000" stroke-width="1" stroke-opacity="0"></use></g></g><g><use xlink:href="#b19UfGSbwl" opacity="1" fill="#373774" fill-opacity="1"></use><g><use xlink:href="#b19UfGSbwl" opacity="1" fill-opacity="0" stroke="#000000" stroke-width="1" stroke-opacity="0"></use></g></g><g><use xlink:href="#a4l2Nt0Wo" opacity="1" fill="#373774" fill-opacity="1"></use><g><use xlink:href="#a4l2Nt0Wo" opacity="1" fill-opacity="0" stroke="#000000" stroke-width="1" stroke-opacity="0"></use></g></g><g><use xlink:href="#d5en5gzyPv" opacity="1" fill="#373774" fill-opacity="1"></use><g><use xlink:href="#d5en5gzyPv" opacity="1" fill-opacity="0" stroke="#000000" stroke-width="1" stroke-opacity="0"></use></g></g><g><use xlink:href="#a87PlE3c6" opacity="1" fill="#373774" fill-opacity="1"></use><g><use xlink:href="#a87PlE3c6" opacity="1" fill-opacity="0" stroke="#000000" stroke-width="1" stroke-opacity="0"></use></g></g><g><use xlink:href="#c2oEHQMEQJ" opacity="1" fill="#373774" fill-opacity="1"></use><g><use xlink:href="#c2oEHQMEQJ" opacity="1" fill-opacity="0" stroke="#000000" stroke-width="1" stroke-opacity="0"></use></g></g><g><use xlink:href="#b2W10BUQqy" opacity="1" fill="#373774" fill-opacity="1"></use><g><use xlink:href="#b2W10BUQqy" opacity="1" fill-opacity="0" stroke="#000000" stroke-width="1" stroke-opacity="0"></use></g></g><g><use xlink:href="#c7fi97SkI" opacity="1" fill="#373774" fill-opacity="1"></use><g><use xlink:href="#c7fi97SkI" opacity="1" fill-opacity="0" stroke="#000000" stroke-width="1" stroke-opacity="0"></use></g></g><g><use xlink:href="#b1QtoqUqpo" opacity="1" fill="#373774" fill-opacity="1"></use><g><use xlink:href="#b1QtoqUqpo" opacity="1" fill-opacity="0" stroke="#000000" stroke-width="1" stroke-opacity="0"></use></g></g><g><use xlink:href="#h7LdCDfWF3" opacity="1" fill="#373774" fill-opacity="1"></use><g><use xlink:href="#h7LdCDfWF3" opacity="1" fill-opacity="0" stroke="#000000" stroke-width="1" stroke-opacity="0"></use></g></g><g><use xlink:href="#a2C9xV1hyB" opacity="1" fill="#373774" fill-opacity="1"></use><g><use xlink:href="#a2C9xV1hyB" opacity="1" fill-opacity="0" stroke="#000000" stroke-width="1" stroke-opacity="0"></use></g></g><g><use xlink:href="#cxaN3Wl9m" opacity="1" fill="#373774" fill-opacity="1"></use><g><use xlink:href="#cxaN3Wl9m" opacity="1" fill-opacity="0" stroke="#000000" stroke-width="1" stroke-opacity="0"></use></g></g><g><use xlink:href="#c4O7RQ66ea" opacity="1" fill="#373774" fill-opacity="1"></use><g><use xlink:href="#c4O7RQ66ea" opacity="1" fill-opacity="0" stroke="#000000" stroke-width="1" stroke-opacity="0"></use></g></g><g><use xlink:href="#dqcz6Gelq" opacity="1" fill="#373774" fill-opacity="1"></use><g><use xlink:href="#dqcz6Gelq" opacity="1" fill-opacity="0" stroke="#000000" stroke-width="1" stroke-opacity="0"></use></g></g><g><use xlink:href="#cITeRqBw4" opacity="1" fill="#373774" fill-opacity="1"></use><g><use xlink:href="#cITeRqBw4" opacity="1" fill-opacity="0" stroke="#000000" stroke-width="1" stroke-opacity="0"></use></g></g><g><use xlink:href="#c47q0OhUHZ" opacity="1" fill="#373774" fill-opacity="1"></use><g><use xlink:href="#c47q0OhUHZ" opacity="1" fill-opacity="0" stroke="#000000" stroke-width="1" stroke-opacity="0"></use></g></g></g></g></svg>